<svg width="213" height="6" viewBox="0 0 213 6" fill="none" xmlns="http://www.w3.org/2000/svg">
  <path d="M183.648 5.77825L182.129 5.39972C187.004 5.22566 189.278 5.60495 193.45 5.29977L193.219 5.38178C193.826 5.46937 194.169 4.61944 200.878 5.65758V5.69538C201.111 5.68889 201.109 5.61327 201.574 5.714L200.414 5.48211C201.14 5.33337 201.886 5.23238 202.643 5.18063C202.711 5.19051 202.774 5.21262 202.824 5.24445C202.874 5.27628 202.909 5.31655 202.926 5.36077L205.198 5.29743L205.894 5.54187C206.589 5.4093 206.272 4.89342 208.13 5.18082C207.43 4.82285 209.051 4.96609 208.822 4.78388C208.916 4.82817 209.129 4.89426 209.3 4.95557C210.549 4.94395 211.791 4.83457 213 4.62984C211.141 4.31758 209.309 3.9382 207.515 3.49337C209.07 3.5906 207.925 3.44956 207.618 3.32912L207.515 3.41829C206.583 3.33091 206.583 3.10492 206.117 3.04225C206.121 3.06397 206.13 3.08514 206.144 3.10492L206.204 3.07466C206.248 3.11455 206.222 3.14218 206.172 3.16473C206.183 3.21306 206.14 3.25108 205.887 3.23757L205.935 3.2139C205.484 3.23293 205.031 3.22672 204.581 3.19528L204.576 3.00645C203.885 3.36594 199.933 2.45814 199.006 2.44621C198.074 2.20816 196.918 2.50506 195.755 2.38597C193.902 2.32516 194.828 2.11055 193.898 1.94774C192.735 1.82936 194.133 2.16786 193.667 2.18053L192.274 1.91795C193.083 1.89535 192.644 1.78151 192.496 1.70855C191.293 1.67648 189.394 1.33032 189.024 1.70688C187.4 1.52652 187.396 1.37561 186.7 1.357C186.933 1.42573 187.396 1.48807 187.4 1.56416C186.749 1.39795 187.089 1.60516 187.355 1.6422C186.363 1.80588 182.206 0.955555 181.997 1.36917V1.29375C181.766 1.60165 182.137 1.90074 181.444 2.07089L180.982 1.93323L180.285 2.06559C179.818 1.96554 180.048 1.88358 180.048 1.84583C178.685 1.91283 177.314 1.88977 175.958 1.777L177.413 2.61666C176.254 2.42271 174.163 2.02905 173.932 2.29934L173.235 2.01709C170.911 1.4785 171.613 2.25108 170.685 2.08879L169.518 1.78144L170.68 1.78678C169.813 1.67519 168.96 1.52261 168.128 1.33027C168.128 1.33334 168.117 1.33556 168.117 1.33852C168.181 1.35129 168.222 1.36599 168.231 1.38439L168.069 1.39184C167.928 1.54507 167.322 1.65017 166.504 1.64C165.192 1.72355 163.868 1.67564 162.578 1.498L162.115 1.81227L160.722 1.62502V1.3749C162.087 1.38986 164.655 1.29463 166.41 1.28191L166.44 1.16764C165.4 1.168 164.217 1.27876 163.53 1.25385C163.194 1.20397 162.337 0.943694 162.959 0.77499L162.317 1.01976C159.937 1.09159 157.553 1.01014 155.198 0.776565L155.513 0.902198C154.794 0.975969 154.077 1.04785 153.878 0.844393C151.904 0.842922 149.939 0.669417 148.035 0.328545L147.726 0.623343C147.266 0.607084 146.577 0.161694 146.354 0.574321L145.372 0.704441C144.744 0.681917 144.36 0.850336 143.644 0.681099V0.680908L143.641 0.680192C143.597 0.669713 143.55 0.658574 143.506 0.645443C143.506 0.65385 143.509 0.662159 143.514 0.669978C142.092 0.539687 143.528 0.934202 141.9 0.764488C141.378 0.554898 141.322 1.13866 140.529 1.07174L139.733 0.648927C138.296 0.406303 138.05 0.830343 135.968 0.831696C134.969 0.68108 134.486 0.320282 135.148 0C134.237 0.387735 134.733 0.2527 133.526 0.438664C133.34 0.279282 133.469 0.245468 133.735 0.102196C132.663 -0.0846055 133.074 0.246233 132.265 0.236755C132.03 0.537063 131.759 1.01508 131.496 1.03447L131.809 1.12816C130.907 1.31334 129.947 1.34247 129.022 1.2127L129.059 1.06172L128 1.13824L127.933 0.945062L126.42 1.00497L126.628 1.05704C125.901 1.11739 125.165 1.11438 124.439 1.04816L124.463 0.940957C122.581 0.606308 121.03 1.04475 118.826 1.0801L119.115 0.861052C118.365 0.643391 118.91 1.19819 118.015 1.08936L117.97 0.820336C117.183 1.17392 116.952 0.745236 116.409 0.611505L116.663 0.963964L115.641 0.889692C114.515 0.772821 114.95 0.44442 115.115 0.259762L114.348 0.537519L114.199 0.226444C113.639 0.588379 113.639 0.16818 112.657 0.362387C112.576 0.244696 112.824 0.177187 112.491 0.127065L110.872 0.565777L111.848 0.371361L111.73 0.826064C110.713 1.17115 110.352 0.776494 109.626 0.903343L110.126 0.768259C109.473 0.840164 108.802 0.775846 108.209 0.584488C108.417 0.66895 108.734 0.794489 108.254 0.853987C107.902 0.879013 108.063 0.694132 107.73 0.643963C107.65 0.946876 106.8 1.10732 106.029 0.964537C106.033 0.922264 106.06 0.882269 106.106 0.852317C106.013 0.893855 105.907 0.920436 105.796 0.929883C105.684 0.939329 105.571 0.931369 105.465 0.906637L105.667 0.569882L105.008 0.890408C104.569 0.798235 103.928 1.04249 103.985 0.815276L104.235 0.74783L100.907 0.666588L100.861 0.39728C100.532 0.767825 99.0484 0.256376 99.1572 0.719047C98.5294 0.46685 96.6855 0.897308 97.0551 0.375514C94.8686 0.335301 93.6873 0.837261 91.0294 0.58339C90.0831 0.140505 87.4892 0.283942 85.7831 0.237137C82.4485 0.422319 80.2936 0.588996 76.8854 0.730885C74.8355 0.112819 71.7722 0.943651 69.5666 0.594464L68.9624 0.840049C67.4965 0.449187 65.2575 0.927427 63.2004 0.546254C62.9128 0.613631 62.6164 0.663854 62.3148 0.696374C62.3906 0.707812 62.4586 0.734811 62.509 0.773367C62.5594 0.811923 62.5894 0.859997 62.5946 0.910503C62.0074 0.801015 60.8188 0.938116 60.9036 0.626827L61.0529 0.594798C61.1394 0.283416 59.2703 0.740329 58.6147 0.470645L58.9743 0.804202L57.8614 0.747877L58.1593 0.68382C53.3263 1.42432 51.1425 0.365942 46.6037 1.04229C47.2057 0.67838 45.709 1.23347 45.6497 0.835706C44.5055 0.335324 43.5295 0.943695 42.5908 1.07704C42.5893 1.09165 42.5826 1.10581 42.5713 1.11847C42.56 1.13114 42.5444 1.14198 42.5257 1.15012L40.8854 1.10253C41.8651 0.599546 39.7041 1.5196 40.6038 1.09174C36.3264 0.715576 30.7442 1.0988 25.7924 0.925348L26.0095 1.05475C24.7524 1.12421 23.4872 1.09922 22.2389 0.980336C21.2856 0.774108 20.1548 1.30876 19.7852 1.32931C18.7406 1.55206 17.7905 1.10921 18.239 1.13194C17.122 1.19365 16.0721 1.65311 14.5224 1.45595C13.993 1.02953 10.2949 1.87434 10.2483 1.39389L10.2312 1.43437C8.24652 1.09607 6.3744 1.6717 4.23692 1.36535C4.26935 1.33931 4.30752 1.31651 4.35017 1.29771L0 2.75557L1.23905 4.35991L5.00959 5.66273L15.2279 5.38025L23.3836 5.8897L43.2312 5.71743L44.6486 5.35538C48.5485 5.98822 53.5499 5.26035 57.7516 5.71209L57.8387 5.40049C58.0832 5.37424 58.3333 5.38101 58.5736 5.42039C58.8139 5.45978 59.0391 5.53092 59.2353 5.62942C70.2539 5.56039 81.5971 5.14526 91.511 5.5381C92.4667 5.7441 95.3743 5.62285 96.124 5.84068C99.3844 5.51857 102.685 5.40535 105.98 5.50259L105.858 5.53686L107.376 5.47686C107.441 5.50238 107.449 5.5394 107.4 5.56335C109.113 5.28751 111.811 5.56039 113.909 5.67266L113.787 5.70665C126.024 5.76332 137.385 5.18178 149.522 5.61662C155.165 6.12496 161.73 5.42324 168.204 5.84674C169.392 6.15689 182.49 5.92411 183.648 5.77825Z" fill="#E55F4C" />
</svg>
